HIERARCHY
ROOT Hips
{
	OFFSET 0.00000 0.00000 0.00000
	CHANNELS 6 Xposition Yposition Zposition Zrotation Yrotation Xrotation 
	JOINT LHipJoint
	{
		OFFSET 0 0 0
		CHANNELS 3 Zrotation Yrotation Xrotation
		JOINT LeftHip
		{
			OFFSET 1.37324 -1.83837 0.85674
			CHANNELS 3 Zrotation Yrotation Xrotation
			JOINT LeftKnee
			{
				OFFSET 2.53826 -6.97383 0.00000
				CHANNELS 3 Zrotation Yrotation Xrotation
				JOINT LeftAnkle
				{
					OFFSET 2.65296 -7.28895 0.00000
					CHANNELS 3 Zrotation Yrotation Xrotation
					JOINT LeftToe
					{
						OFFSET 0.22100 -0.60718 2.29776
						CHANNELS 3 Zrotation Yrotation Xrotation
						End Site
						{
							OFFSET 0.00000 -0.00000 1.19228
						}
					}
				}
			}
		}
	}
	JOINT RHipJoint
	{
		OFFSET 0 0 0
		CHANNELS 3 Zrotation Yrotation Xrotation
		JOINT RightHip
		{
			OFFSET -1.30156 -1.83836 0.85673
			CHANNELS 3 Zrotation Yrotation Xrotation
			JOINT RightKnee
			{
				OFFSET -2.63627 -7.24310 0.00000
				CHANNELS 3 Zrotation Yrotation Xrotation
				JOINT RightAnkle
				{
					OFFSET -2.62024 -7.19904 0.00000
					CHANNELS 3 Zrotation Yrotation Xrotation
					JOINT RightToe
					{
						OFFSET -0.20765 -0.57052 2.42402
						CHANNELS 3 Zrotation Yrotation Xrotation
						End Site
						{
							OFFSET -0.00000 -0.00000 1.24980
						}
					}
				}
			}
		}
	}
	JOINT lowerback
	{
		OFFSET 0 0 0
		CHANNELS 3 Zrotation Yrotation Xrotation
		JOINT Chest
		{
			OFFSET 0.05739 2.14162 -0.22815
			CHANNELS 3 Zrotation Yrotation Xrotation
			JOINT Chest2
			{
				OFFSET 0.02798 2.14167 0.08145
				CHANNELS 3 Zrotation Yrotation Xrotation
				JOINT lowerneck
				{
					OFFSET 0 0 0
					CHANNELS 3 Zrotation Yrotation Xrotation
					JOINT Neck
					{
						OFFSET -0.07019 1.58903 0.32980
						CHANNELS 3 Zrotation Yrotation Xrotation
						JOINT Head
						{
							OFFSET -0.03205 1.65283 -0.21190
							CHANNELS 3 Zrotation Yrotation Xrotation
							End Site
							{
								OFFSET -0.00726 1.66788 -0.10849
							}
						}
					}
				}
				JOINT LeftCollar
				{
					OFFSET 0 0 0
					CHANNELS 3 Zrotation Yrotation Xrotation
					JOINT LeftShoulder
					{
						OFFSET 3.92858 0.97533 -0.07938
CHANNELS 3 Zrotation Xrotation Yrotation
						JOINT LeftElbow
						{
OFFSET 0 -5.583450 -0.000000
CHANNELS 3 Zrotation Xrotation Yrotation
							JOINT LeftWrist
							{
OFFSET 0 -3.710870 0.000000
CHANNELS 3 Zrotation Xrotation Yrotation
								JOINT lhand
								{
									OFFSET 0 0 0
CHANNELS 3 Zrotation Xrotation Yrotation
									JOINT LFingers
									{
OFFSET 0 -0.562320 -0.000000
CHANNELS 3 Zrotation Xrotation Yrotation
										End Site
										{
OFFSET 0 -0.453360 -0.000000
										}
									}
								}
								JOINT LThumb
								{
OFFSET 0 0.000000 0.000000
CHANNELS 3 Zrotation Xrotation Yrotation
									End Site
									{
OFFSET 0 -0.460280 0.460280
									}
								}
							}
						}
					}
				}
				JOINT RightCollar
				{
					OFFSET 0 0 0
					CHANNELS 3 Zrotation Yrotation Xrotation
					JOINT RightShoulder
					{
						OFFSET -3.89897 1.08887 -0.22589
CHANNELS 3 Zrotation Xrotation Yrotation
						JOINT RightElbow
						{
OFFSET 0 -5.203570 -0.000000
CHANNELS 3 Zrotation Xrotation Yrotation
							JOINT RightWrist
							{
OFFSET 0 -3.649370 0.000000
CHANNELS 3 Zrotation Xrotation Yrotation
								JOINT rhand
								{
									OFFSET 0 0 0
CHANNELS 3 Zrotation Xrotation Yrotation
									JOINT RFingers
									{
OFFSET 0 -0.618000 -0.000000
CHANNELS 3 Zrotation Xrotation Yrotation
										End Site
										{
OFFSET 0 -0.498240 -0.000000
										}
									}
								}
								JOINT RThumb
								{
OFFSET 0 0.000000 0.000000
CHANNELS 3 Zrotation Xrotation Yrotation
									End Site
									{
OFFSET 0 -0.505850 0.505850
									}
								}
							}
						}
					}
				}
			}
		}
	}
}
MOTION
Frames: 11
Frame Time: 0.008333333333333333
-10.377300 16.743500 -49.024500 -11.771300 -4.784500 14.921400 0.000000 0.000000 0.000000 -8.691500 -7.769600 -62.425700 12.534500 18.607600 67.673300 -0.261400 -9.107600 2.001300 0.340000 -3.747100 -10.366300 0.000000 0.000000 0.000000 30.934700 0.280500 4.798700 -5.510700 -13.936800 42.984800 -0.631200 -4.652700 14.153200 -2.435600 9.719900 -28.074300 10.564200 3.281900 16.912200 3.372100 6.605000 0.956900 -3.770800 2.862100 -7.662200 -0.950900 -0.916700 -22.800700 -3.714800 -0.446600 7.279900 -1.101700 -0.566500 5.834600 -0.000000 0.000000 0.000000 9.262200 39.738000 -47.085800 110.280400 -58.387400 77.468300 18.684100 -19.178500 9.367500 0.000000 0.000000 0.000000 -7.125000 0.000000 0.000000 -5.910800 20.126700 -3.534600 -0.000000 0.000000 0.000000 -6.588900 4.351900 50.783400 -107.195900 -58.852700 -74.834700 -30.996200 -9.162800 -5.968600 0.000000 0.000000 0.000000 7.125000 0.000000 -0.000000 -3.148700 23.028700 -1.668500
-10.382898 16.740895 -48.885936 -11.685806 -4.658213 14.824848 0.000000 0.000000 0.000000 -9.073633 -7.633918 -61.653786 12.529595 18.605688 67.657947 -0.307625 -9.926293 1.605256 0.248326 -2.880574 -7.965868 0.000000 0.000000 0.000000 30.832689 0.226460 4.121398 -5.832890 -14.245438 44.271508 -0.611524 -4.730130 13.922934 -2.557259 9.933095 -28.767565 10.425802 3.207352 16.914999 3.371601 6.476606 1.006866 -3.668595 2.808198 -7.639559 -0.946798 -0.876710 -22.914877 -3.673840 -0.397243 7.282754 -1.084463 -0.539979 5.853500 0.000000 0.000000 0.000000 8.937766 39.259704 -46.924262 110.360490 -58.374098 77.536474 18.722870 -18.952807 9.250053 0.000000 0.000000 0.000000 -7.125000 0.000000 0.000000 -5.883059 20.247306 -3.502037 0.000000 0.000000 0.000000 -6.482593 4.671263 50.687624 -105.662021 -59.026515 -73.517342 -30.862707 -8.819216 -5.951667 0.000000 0.000000 0.000000 7.125000 0.000000 0.000000 -3.051816 23.057605 -1.615180
-10.388496 16.738290 -48.747371 -11.600312 -4.531925 14.728297 0.000000 0.000000 0.000000 -9.455765 -7.498236 -60.881872 12.524690 18.603776 67.642594 -0.353850 -10.744986 1.209211 0.156652 -2.014049 -5.565436 0.000000 0.000000 0.000000 30.730678 0.172420 3.444096 -6.155079 -14.554076 45.558216 -0.591848 -4.807559 13.692668 -2.678919 10.146290 -29.460830 10.287404 3.132805 16.917798 3.371102 6.348213 1.056833 -3.566390 2.754297 -7.616917 -0.942697 -0.836721 -23.029054 -3.632881 -0.347887 7.285609 -1.067225 -0.513458 5.872400 0.000000 0.000000 0.000000 8.613331 38.781408 -46.762724 110.440580 -58.360796 77.604647 18.761641 -18.727113 9.132606 0.000000 0.000000 0.000000 -7.125000 0.000000 0.000000 -5.855319 20.367913 -3.469475 0.000000 0.000000 0.000000 -6.376287 4.990626 50.591849 -104.128142 -59.200330 -72.199983 -30.729214 -8.475632 -5.934735 0.000000 0.000000 0.000000 7.125000 0.000000 0.000000 -2.954932 23.086509 -1.561861
-10.394094 16.735685 -48.608807 -11.514818 -4.405638 14.631745 0.000000 0.000000 0.000000 -9.837898 -7.362554 -60.109958 12.519784 18.601863 67.627241 -0.400075 -11.563679 0.813167 0.064978 -1.147523 -3.165004 0.000000 0.000000 0.000000 30.628667 0.118380 2.766793 -6.477269 -14.862714 46.844924 -0.572172 -4.884989 13.462402 -2.800578 10.359485 -30.154094 10.149006 3.058257 16.920597 3.370604 6.219819 1.106799 -3.464185 2.700395 -7.594276 -0.938595 -0.796731 -23.143231 -3.591921 -0.298530 7.288463 -1.049988 -0.486936 5.891301 0.000000 0.000000 0.000000 8.288897 38.303112 -46.601185 110.520670 -58.347493 77.672821 18.800411 -18.501420 9.015159 0.000000 0.000000 0.000000 -7.125000 0.000000 0.000000 -5.827578 20.488519 -3.436912 0.000000 0.000000 0.000000 -6.269980 5.309989 50.496073 -102.594264 -59.374145 -70.882625 -30.595722 -8.132048 -5.917802 0.000000 0.000000 0.000000 7.125000 0.000000 0.000000 -2.858048 23.115414 -1.508541
-10.399095 16.732288 -48.470156 -11.392852 -4.270300 14.534065 0.000000 0.000000 0.000000 -10.238944 -7.259382 -59.302224 12.491147 18.590500 67.537263 -0.445768 -12.433711 0.239224 0.008516 -0.514933 -1.414962 0.000000 0.000000 0.000000 30.475752 0.033674 2.089730 -6.805286 -15.157604 48.120053 -0.553461 -5.000855 13.243258 -2.917745 10.557987 -30.805983 10.004347 2.987410 16.931665 3.341099 6.096254 1.132805 -3.391865 2.646396 -7.598611 -0.892456 -0.765325 -23.181372 -3.563354 -0.273513 7.276723 -1.045479 -0.471082 5.893468 0.000000 0.000000 0.000000 8.051957 37.824729 -46.510822 110.560534 -58.340876 77.706747 18.878257 -18.279535 8.925198 0.000000 0.000000 0.000000 -7.125000 0.000000 0.000000 -5.771689 20.578047 -3.391946 0.000000 0.000000 0.000000 -6.117946 5.686669 50.342080 -101.018705 -59.522785 -69.526538 -30.515043 -7.779881 -5.895194 0.000000 0.000000 0.000000 7.125000 0.000000 0.000000 -2.800348 23.147172 -1.475840
-10.403169 16.727660 -48.331370 -11.214215 -4.120900 14.434631 0.000000 0.000000 0.000000 -10.669380 -7.206728 -58.438830 12.425634 18.564450 67.331329 -0.490636 -13.383513 -0.611145 0.006770 -0.245841 -0.675528 0.000000 0.000000 0.000000 30.243740 -0.098683 1.413038 -7.142357 -15.431129 49.377191 -0.536252 -5.176443 13.041398 -3.027932 10.733659 -31.393578 9.849958 2.922313 16.955581 3.266524 5.980193 1.121581 -3.365981 2.592245 -7.644864 -0.780994 -0.747256 -23.101365 -3.554042 -0.286317 7.242303 -1.060749 -0.471803 5.869635 0.000000 0.000000 0.000000 7.950972 37.346211 -46.531052 110.537893 -58.344645 77.687459 19.016821 -18.063569 8.877948 0.000000 0.000000 0.000000 -7.125000 0.000000 0.000000 -5.672061 20.619284 -3.327708 0.000000 0.000000 0.000000 -5.894858 6.152411 50.097625 -99.378381 -59.632306 -68.110273 -30.516428 -7.414376 -5.863768 0.000000 0.000000 0.000000 7.125000 0.000000 0.000000 -2.803535 23.183365 -1.475174
-10.407243 16.723032 -48.192584 -11.035578 -3.971500 14.335198 0.000000 0.000000 0.000000 -11.099816 -7.154073 -57.575436 12.360121 18.538399 67.125395 -0.535503 -14.333316 -1.461514 0.005025 0.023251 0.063906 0.000000 0.000000 0.000000 30.011728 -0.231040 0.736345 -7.479429 -15.704655 50.634329 -0.519042 -5.352032 12.839537 -3.138118 10.909331 -31.981174 9.695570 2.857215 16.979497 3.191948 5.864131 1.110358 -3.340097 2.538094 -7.691117 -0.669533 -0.729187 -23.021358 -3.544731 -0.299120 7.207884 -1.076019 -0.472523 5.845802 0.000000 0.000000 0.000000 7.849986 36.867693 -46.551282 110.515252 -58.348414 77.668171 19.155386 -17.847602 8.830697 0.000000 0.000000 0.000000 -7.125000 0.000000 0.000000 -5.572434 20.660520 -3.263470 0.000000 0.000000 0.000000 -5.671769 6.618153 49.853169 -97.738057 -59.741827 -66.694007 -30.517814 -7.048871 -5.832342 0.000000 0.000000 0.000000 7.125000 0.000000 0.000000 -2.806722 23.219558 -1.474509
-10.411317 16.718404 -48.053798 -10.856941 -3.822100 14.235764 0.000000 0.000000 0.000000 -11.530252 -7.101419 -56.712042 12.294608 18.512349 66.919460 -0.580370 -15.283119 -2.311883 0.003279 0.292343 0.803341 0.000000 0.000000 0.000000 29.779716 -0.363396 0.059653 -7.816500 -15.978181 51.891468 -0.501832 -5.527621 12.637677 -3.248304 11.085003 -32.568770 9.541182 2.792118 17.003413 3.117373 5.748070 1.099134 -3.314213 2.483944 -7.737369 -0.558072 -0.711119 -22.941351 -3.535419 -0.311923 7.173464 -1.091288 -0.473244 5.821969 0.000000 0.000000 0.000000 7.749001 36.389175 -46.571513 110.492610 -58.352183 77.648883 19.293950 -17.631636 8.783447 0.000000 0.000000 0.000000 -7.125000 0.000000 0.000000 -5.472806 20.701757 -3.199231 0.000000 0.000000 0.000000 -5.448681 7.083896 49.608714 -96.097733 -59.851348 -65.277742 -30.519199 -6.683366 -5.800915 0.000000 0.000000 0.000000 7.125000 0.000000 0.000000 -2.809909 23.255751 -1.473844
-10.415260 16.716098 -47.914969 -10.608160 -3.685960 14.152607 0.000000 0.000000 0.000000 -12.042964 -7.031858 -55.830461 12.223886 18.483348 66.696251 -0.552749 -15.528035 -3.211148 0.011733 0.567121 1.559009 0.000000 0.000000 0.000000 29.449998 -0.486160 -0.644277 -8.157044 -16.221562 53.107479 -0.480825 -5.716405 12.392302 -3.326457 11.204008 -32.972933 9.309705 2.726065 17.004932 3.032055 5.610566 1.105880 -3.249872 2.424020 -7.758599 -0.399668 -0.681330 -23.005038 -3.606105 -0.307560 7.210751 -1.139655 -0.473357 5.843560 0.000000 0.000000 0.000000 7.627419 35.811302 -46.571364 110.437176 -58.361377 77.601707 19.422184 -17.485965 8.731183 0.000000 0.000000 0.000000 -7.125000 0.000000 0.000000 -5.380362 20.749049 -3.139138 0.000000 0.000000 0.000000 -5.248424 7.480688 49.355166 -94.332314 -59.901751 -63.750249 -30.607570 -6.425117 -5.808793 0.000000 0.000000 0.000000 7.125000 0.000000 0.000000 -2.874363 23.240573 -1.508859
-10.419168 16.714435 -47.776127 -10.339955 -3.553493 14.073958 0.000000 0.000000 0.000000 -12.578459 -6.957615 -54.943844 12.151722 18.453529 66.468257 -0.505056 -15.577752 -4.123954 0.023012 0.843473 2.319172 0.000000 0.000000 0.000000 29.093222 -0.606268 -1.355749 -8.498550 -16.456594 54.312101 -0.458765 -5.908843 12.134878 -3.395739 11.307322 -33.326299 9.056881 2.659748 17.000249 2.943762 5.467124 1.117603 -3.174881 2.362497 -7.772898 -0.228264 -0.648296 -23.108518 -3.698943 -0.298442 7.267895 -1.197187 -0.473301 5.877730 0.000000 0.000000 0.000000 7.500134 35.205914 -46.565572 110.372660 -58.372074 77.546808 19.547557 -17.359761 8.677531 0.000000 0.000000 0.000000 -7.125000 0.000000 0.000000 -5.289907 20.798018 -3.080193 0.000000 0.000000 0.000000 -5.054489 7.858386 49.099099 -92.532253 -59.935782 -62.191956 -30.720029 -6.196569 -5.827554 0.000000 0.000000 0.000000 7.125000 0.000000 0.000000 -2.955783 23.211170 -1.553753
-10.423075 16.712772 -47.637286 -10.071750 -3.421026 13.995309 0.000000 0.000000 0.000000 -13.113955 -6.883373 -54.057226 12.079557 18.423710 66.240263 -0.457362 -15.627469 -5.036760 0.034291 1.119826 3.079336 0.000000 0.000000 0.000000 28.736447 -0.726375 -2.067221 -8.840055 -16.691627 55.516724 -0.436706 -6.101281 11.877453 -3.465021 11.410635 -33.679666 8.804056 2.593431 16.995565 2.855468 5.323683 1.129325 -3.099890 2.300975 -7.787198 -0.056860 -0.615263 -23.211998 -3.791781 -0.289325 7.325039 -1.254719 -0.473246 5.911899 0.000000 0.000000 0.000000 7.372849 34.600527 -46.559780 110.308145 -58.382772 77.491908 19.672930 -17.233557 8.623879 0.000000 0.000000 0.000000 -7.125000 0.000000 0.000000 -5.199452 20.846986 -3.021248 0.000000 0.000000 0.000000 -4.860554 8.236085 48.843032 -90.732192 -59.969814 -60.633662 -30.832488 -5.968021 -5.846316 0.000000 0.000000 0.000000 7.125000 0.000000 0.000000 -3.037204 23.181767 -1.598648
